<svg width="22" height="18" viewBox="0 0 22 18" fill="none" xmlns="http://www.w3.org/2000/svg">
<path d="M21.7171 7.6853L11.4046 0.132908C11.2871 0.046542 11.1454 0 11 0C10.8546 0 10.7129 0.046542 10.5954 0.132908L0.282907 7.6853C0.209913 7.7388 0.148098 7.80626 0.100993 7.88382C0.0538876 7.96138 0.0224146 8.04752 0.00836973 8.13733C-0.00567513 8.22714 -0.00201632 8.31886 0.0191375 8.40724C0.0402913 8.49563 0.0785257 8.57895 0.131658 8.65245C0.18479 8.72596 0.251779 8.78821 0.3288 8.83564C0.405822 8.88308 0.491366 8.91477 0.580551 8.92891C0.760668 8.95748 0.944676 8.91282 1.09209 8.80476L2.44922 7.81061V17.3077C2.44922 17.4913 2.52165 17.6674 2.65058 17.7972C2.77952 17.9271 2.95438 18 3.13672 18H8.68828C8.87062 18 9.04549 17.9271 9.17442 17.7972C9.30335 17.6674 9.37578 17.4913 9.37578 17.3077V10.8048H12.6242V17.3077C12.6242 17.4913 12.6967 17.6674 12.8256 17.7972C12.9545 17.9271 13.1294 18 13.3117 18H18.8633C19.0456 18 19.2205 17.9271 19.3494 17.7972C19.4783 17.6674 19.5508 17.4913 19.5508 17.3077V7.8113L20.9079 8.80545C20.9809 8.8591 21.0637 8.89771 21.1515 8.91905C21.2393 8.9404 21.3304 8.94407 21.4197 8.92986C21.5089 8.91564 21.5945 8.88382 21.6715 8.83622C21.7485 8.78861 21.8154 8.72616 21.8683 8.65245C21.9215 8.57895 21.9597 8.49563 21.9809 8.40724C22.002 8.31886 22.0057 8.22714 21.9916 8.13733C21.9776 8.04752 21.9461 7.96138 21.899 7.88382C21.8519 7.80626 21.7901 7.7388 21.7171 7.6853ZM18.1758 16.6161H13.9992V10.1132C13.9992 9.92961 13.9268 9.75352 13.7979 9.62369C13.6689 9.49386 13.4941 9.42092 13.3117 9.42092H8.68828C8.50595 9.42092 8.33108 9.49386 8.20215 9.62369C8.07322 9.75352 8.00078 9.92961 8.00078 10.1132V16.6161H3.82422V6.80399L11.0003 1.54868L18.1765 6.80399V16.6161H18.1758Z" fill="#101828"/>
</svg>
