<svg width="20" height="20" viewBox="0 0 20 20" fill="none" xmlns="http://www.w3.org/2000/svg">
<rect width="20" height="20" fill="white"/>
<path fill-rule="evenodd" clip-rule="evenodd" d="M1 5.75C1 3.12665 3.12665 1 5.75 1H14.25C16.8734 1 19 3.12665 19 5.75V14.25C19 16.8734 16.8734 19 14.25 19H5.75C3.12665 19 1 16.8734 1 14.25V5.75ZM5.75 2.5C3.95507 2.5 2.5 3.95507 2.5 5.75V14.25C2.5 16.0449 3.95507 17.5 5.75 17.5H14.25C16.0449 17.5 17.5 16.0449 17.5 14.25V5.75C17.5 3.95507 16.0449 2.5 14.25 2.5H5.75ZM6 10C6 9.58579 6.33579 9.25 6.75 9.25H13.25C13.6642 9.25 14 9.58579 14 10C14 10.4142 13.6642 10.75 13.25 10.75H6.75C6.33579 10.75 6 10.4142 6 10Z" fill="black"/>
</svg>
