<svg width="18" height="18" viewBox="0 0 18 18" fill="none" xmlns="http://www.w3.org/2000/svg">
<path fill-rule="evenodd" clip-rule="evenodd" d="M0 4.75C0 2.12665 2.12665 0 4.75 0H13.25C15.8734 0 18 2.12665 18 4.75V13.25C18 15.8734 15.8734 18 13.25 18H4.75C2.12665 18 0 15.8734 0 13.25V4.75ZM4.75 1.5C2.95507 1.5 1.5 2.95507 1.5 4.75V13.25C1.5 15.0449 2.95507 16.5 4.75 16.5H13.25C15.0449 16.5 16.5 15.0449 16.5 13.25V4.75C16.5 2.95507 15.0449 1.5 13.25 1.5H4.75ZM9 5C9.41421 5 9.75 5.33579 9.75 5.75V8.25H12.25C12.6642 8.25 13 8.58579 13 9C13 9.41421 12.6642 9.75 12.25 9.75H9.75V12.25C9.75 12.6642 9.41421 13 9 13C8.58579 13 8.25 12.6642 8.25 12.25V9.75H5.75C5.33579 9.75 5 9.41421 5 9C5 8.58579 5.33579 8.25 5.75 8.25H8.25V5.75C8.25 5.33579 8.58579 5 9 5Z" fill="black"/>
</svg>
