<svg width="24" height="20" viewBox="0 0 24 20" fill="none" xmlns="http://www.w3.org/2000/svg">
<path d="M11.6895 14.8001C9.03981 14.8001 6.88904 12.6493 6.88904 9.99963C6.88904 7.34999 9.03981 5.19922 11.6895 5.19922C14.3391 5.19922 16.4899 7.34999 16.4899 9.99963C16.4899 12.6493 14.3391 14.8001 11.6895 14.8001ZM11.6895 6.86219C9.95997 6.86219 8.55201 8.27015 8.55201 9.99963C8.55201 11.7291 9.95997 13.1371 11.6895 13.1371C13.4189 13.1371 14.8269 11.7291 14.8269 9.99963C14.8269 8.27015 13.4189 6.86219 11.6895 6.86219Z" fill="#4A7DFC"/>
<path d="M11.6907 20C7.52216 20 3.58647 17.561 0.881374 13.3259C-0.293791 11.4967 -0.293791 8.51443 0.881374 6.67405C3.59756 2.43902 7.53325 0 11.6907 0C15.8481 0 19.7838 2.43902 22.4889 6.67405C23.6641 8.50334 23.6641 11.4856 22.4889 13.3259C19.7838 17.561 15.8481 20 11.6907 20ZM11.6907 1.66297C8.10975 1.66297 4.68403 3.81374 2.28935 7.57205C1.45787 8.86919 1.45787 11.1308 2.28935 12.4279C4.68403 16.1863 8.10975 18.337 11.6907 18.337C15.2716 18.337 18.6973 16.1863 21.092 12.4279C21.9235 11.1308 21.9235 8.86919 21.092 7.57205C18.6973 3.81374 15.2716 1.66297 11.6907 1.66297Z" fill="#4A7DFC"/>
</svg>
