<svg width="30" height="25" viewBox="0 0 30 25" fill="none" xmlns="http://www.w3.org/2000/svg">
<path d="M14.6128 18.5006C11.3008 18.5006 8.6123 15.8121 8.6123 12.5C8.6123 9.18798 11.3008 6.49951 14.6128 6.49951C17.9249 6.49951 20.6134 9.18798 20.6134 12.5C20.6134 15.8121 17.9249 18.5006 14.6128 18.5006ZM14.6128 8.57822C12.451 8.57822 10.691 10.3382 10.691 12.5C10.691 14.6619 12.451 16.4219 14.6128 16.4219C16.7747 16.4219 18.5347 14.6619 18.5347 12.5C18.5347 10.3382 16.7747 8.57822 14.6128 8.57822Z" fill="white"/>
<path d="M14.6134 25C9.40271 25 4.48309 21.9512 1.10172 16.6574C-0.367239 14.3709 -0.367239 10.643 1.10172 8.34256C4.49695 3.04878 9.41656 0 14.6134 0C19.8102 0 24.7298 3.04878 28.1111 8.34256C29.5801 10.6292 29.5801 14.357 28.1111 16.6574C24.7298 21.9512 19.8102 25 14.6134 25ZM14.6134 2.07871C10.1372 2.07871 5.85504 4.76718 2.86169 9.46507C1.82234 11.0865 1.82234 13.9135 2.86169 15.5349C5.85504 20.2328 10.1372 22.9213 14.6134 22.9213C19.0895 22.9213 23.3717 20.2328 26.365 15.5349C27.4044 13.9135 27.4044 11.0865 26.365 9.46507C23.3717 4.76718 19.0895 2.07871 14.6134 2.07871Z" fill="white"/>
</svg>
