<svg width="21" height="21" viewBox="0 0 21 21" fill="none" xmlns="http://www.w3.org/2000/svg">
<path fill-rule="evenodd" clip-rule="evenodd" d="M0.41937 0.41937C0.97853 -0.13979 1.88511 -0.13979 2.44427 0.41937L10.5 8.4751L18.5557 0.41937C19.1149 -0.13979 20.0215 -0.13979 20.5806 0.41937C21.1398 0.97853 21.1398 1.88511 20.5806 2.44427L12.5249 10.5L20.5806 18.5557C21.1398 19.1149 21.1398 20.0215 20.5806 20.5806C20.0215 21.1398 19.1149 21.1398 18.5557 20.5806L10.5 12.5249L2.44427 20.5806C1.88511 21.1398 0.97853 21.1398 0.41937 20.5806C-0.13979 20.0215 -0.13979 19.1149 0.41937 18.5557L8.4751 10.5L0.41937 2.44427C-0.13979 1.88511 -0.13979 0.97853 0.41937 0.41937Z" fill="#212529"/>
</svg>
