<svg width="53" height="52" viewBox="0 0 53 52" fill="none" xmlns="http://www.w3.org/2000/svg">
<path d="M26.631 51.6799C40.902 51.6799 52.4709 40.111 52.4709 25.84C52.4709 11.5689 40.902 0 26.631 0C12.36 0 0.791016 11.5689 0.791016 25.84C0.791016 40.111 12.36 51.6799 26.631 51.6799Z" fill="#039855"/>
<path d="M21.8834 36.9839C21.3026 36.9839 20.7456 36.7535 20.3343 36.3434L11.9072 27.9163C11.497 27.5043 11.2666 26.9464 11.2666 26.3649C11.2666 25.7834 11.497 25.2256 11.9072 24.8135C12.3187 24.4021 12.8768 24.171 13.4586 24.171C14.0405 24.171 14.5986 24.4021 15.01 24.8135L21.8834 31.6869L38.2378 15.3325C38.6493 14.9211 39.2074 14.69 39.7892 14.69C40.3711 14.69 40.9291 14.9211 41.3406 15.3325C41.7504 15.743 41.9805 16.2994 41.9805 16.8794C41.9805 17.4594 41.7504 18.0157 41.3406 18.4262L23.4371 36.3343C23.0251 36.7472 22.4667 36.9807 21.8834 36.9839Z" fill="white"/>
</svg>
