<svg width="28" height="28" viewBox="0 0 28 28" fill="none" xmlns="http://www.w3.org/2000/svg">
<path fill-rule="evenodd" clip-rule="evenodd" d="M15.7518 6.3002L6.65176 6.3002C5.68526 6.3002 4.90176 7.0837 4.90176 8.0502L4.90176 19.9502C4.90176 20.9167 5.68526 21.7002 6.65176 21.7002H15.7518C16.3317 21.7002 16.8018 22.1703 16.8018 22.7502C16.8018 23.3301 16.3317 23.8002 15.7518 23.8002H6.65176C4.52546 23.8002 2.80176 22.0765 2.80176 19.9502L2.80176 8.0502C2.80176 5.9239 4.52546 4.2002 6.65176 4.2002L15.7518 4.2002C16.3317 4.2002 16.8018 4.6703 16.8018 5.2502C16.8018 5.83009 16.3317 6.3002 15.7518 6.3002ZM14.0446 9.40773C14.4547 9.81778 14.4547 10.4826 14.0446 10.8927L11.9871 12.9502L24.1488 12.9502C24.7287 12.9502 25.1988 13.4203 25.1988 14.0002C25.1988 14.5801 24.7287 15.0502 24.1488 15.0502L11.9871 15.0502L14.0446 17.1077C14.4547 17.5178 14.4547 18.1826 14.0446 18.5927C13.6346 19.0027 12.9698 19.0027 12.5597 18.5927L8.70972 14.7427C8.51281 14.5457 8.40218 14.2787 8.40218 14.0002C8.40218 13.7217 8.51281 13.4546 8.70972 13.2577L12.5597 9.40773C12.9698 8.99768 13.6346 8.99768 14.0446 9.40773Z" fill="#212529"/>
</svg>
