<svg width="17" height="16" viewBox="0 0 17 16" fill="none" xmlns="http://www.w3.org/2000/svg">
<path d="M16 10.1733V13.2312C16 13.6367 15.8244 14.0255 15.5118 14.3123C15.1993 14.599 14.7754 14.7601 14.3333 14.7601H2.66667C2.22464 14.7601 1.80072 14.599 1.48816 14.3123C1.17559 14.0255 1 13.6367 1 13.2312V10.1733" stroke="white" stroke-width="2" stroke-linecap="round" stroke-linejoin="round"/>
<path d="M12.6674 6.35105L8.50077 10.1733L4.33411 6.35105" stroke="white" stroke-width="2" stroke-linecap="round" stroke-linejoin="round"/>
<path d="M12.6674 6.35105L8.50077 10.1733L4.33411 6.35105" stroke="white" stroke-width="2" stroke-linecap="round" stroke-linejoin="round"/>
<path d="M8.50012 10.1733V0.99985" stroke="white" stroke-width="2" stroke-linecap="round" stroke-linejoin="round"/>
<path d="M16 10.1733V13.2312C16 13.6367 15.8244 14.0255 15.5118 14.3123C15.1993 14.599 14.7754 14.7601 14.3333 14.7601H2.66667C2.22464 14.7601 1.80072 14.599 1.48816 14.3123C1.17559 14.0255 1 13.6367 1 13.2312V10.1733" stroke="white" stroke-width="2" stroke-linecap="round" stroke-linejoin="round"/>
</svg>
