<?xml version="1.0" encoding="utf-8"?>
<!-- Generator: Adobe Illustrator 27.3.1, SVG Export Plug-In . SVG Version: 6.00 Build 0)  -->
<svg version="1.1" id="Layer_1" xmlns="http://www.w3.org/2000/svg" xmlns:xlink="http://www.w3.org/1999/xlink" x="0px" y="0px"
	 viewBox="0 0 96 96" style="enable-background:new 0 0 96 96;" xml:space="preserve">
<style type="text/css">
	.st0{fill:#231F20;}
	.st1{fill:#FFFFFF;}
	.st2{fill:#284470;}
	.st3{fill:#0274A5;}
</style>
<path class="st0" d="M93.25,43.83c-1.71,0-3.42,0-5.13,0c-5.74-0.01-11.48,0.25-17.21,0.56c-5.23,0.29-10.46,0.79-15.66,1.42
	c-5.99,0.73-11.94,1.64-17.83,2.98c-8.7,1.97-17.12,4.67-24.68,9.58c-1.73,1.13-3.35,2.39-4.8,3.88c-1.55,1.59-2.77,3.36-3.29,5.56
	c-0.38-2.39,0.09-4.65,1.15-6.78c1.89-3.81,4.96-6.54,8.4-8.9c6.38-4.39,13.55-6.88,20.97-8.79c8.81-2.27,17.81-3.38,26.84-4.18
	c1.67-0.15,3.36-0.22,5.04-0.33c0.15-0.55-0.36-0.71-0.58-1c-4.36-5.59-1.14-13.16,5.02-14.42c3.78-0.77,7.01,0.01,9.61,3.75
	c2.15,3.1,2,7.31-0.26,10.43c-0.24,0.33-0.45,0.67-0.67,1c0.4,0.23,0.83,0.31,1.3,0.29c2.41-0.13,4.62,0.41,6.67,1.77
	c1.66,1.1,3.45,2,5.19,2.99C93.29,43.71,93.27,43.77,93.25,43.83z"/>
<path class="st0" d="M13.03,51.64c1.15-3.53,3.36-6.31,6.2-8.6c4.79-3.87,10.43-5.87,16.3-7.38c4.07-1.05,8.22-1.65,12.55-2.24
	c-2.52-2.26-3.7-4.94-3.42-8.19c0.18-2.14,1.05-4.11,2.53-5.5c3.52-3.3,8.97-3.31,12.4-0.41c3.77,3.19,4.11,8.16,0.89,12.99
	c0.05,0.05,0.1,0.14,0.16,0.14c2.06,0.07,2.08,0.06,2.52,2.07c0.19,0.84,0.49,1.64,0.91,2.59c-2.64,0.27-5.15,0.55-7.67,0.77
	c-9.74,0.86-19.41,2.13-28.74,5.23c-4.51,1.5-8.88,3.34-12.43,6.65c-0.69,0.64-1.29,1.38-1.93,2.08
	C13.2,51.78,13.12,51.71,13.03,51.64z"/>
<path class="st0" d="M40.25,28.22c0.68,0,1.33,0.06,1.95-0.02c0.63-0.08,1,0.02,1.12,0.71c0.2,1.14,0.84,2.12,1.29,3.15
	c-8.34,1.33-16.74,2.3-23.66,8.35c1.87-4.48,4.24-8.14,9.1-9.68c-6.16-3.09-6.85-9.22-4.42-13.17c2.85-4.63,8.49-5.67,12.88-2.73
	C42.43,17.45,44.05,23.29,40.25,28.22z"/>
<path class="st0" d="M10.32,62.92c-0.62,5.17,0.84,9.92,2.71,14.59c0.13,0.32,0.26,0.67,0.1,0.95c-0.77,1.35-1.54,2.71-2.4,4.01
	c-0.42,0.64-0.59,0-0.79-0.29c-2.09-2.95-3.01-6.33-3.74-9.82C5.32,68.15,7.67,65.52,10.32,62.92z"/>
<path class="st0" d="M14.84,75.55c-1.84-4.59-2.64-9.16-2.37-13.91c0.02-0.29,0.02-0.57,0.29-0.77c1.29-0.97,2.66-1.81,4.07-2.58
	c0.5-0.28,0.54,0.11,0.53,0.47c-0.12,3.36,0.42,6.64,1.15,9.9c0.06,0.26,0.05,0.48-0.08,0.71C17.26,71.37,16.09,73.4,14.84,75.55z"
	/>
<path class="st0" d="M24.64,54.56c0.78,2.32,0.12,4.26-1.17,6.13c-0.98,1.41-1.74,2.96-2.6,4.45c-0.33-0.02-0.46-0.28-0.47-0.47
	c-0.05-2.34-0.6-4.64-0.58-6.99c0-0.71,0.18-1.14,0.86-1.41C22.04,55.72,23.37,55.11,24.64,54.56z"/>
<path class="st0" d="M13.29,51.85c-0.09,0.12-0.18,0.23-0.27,0.35c-0.18-0.19-0.07-0.37,0.01-0.55
	C13.12,51.71,13.2,51.78,13.29,51.85z"/>
</svg>
