<svg width="20" height="20" viewBox="0 0 20 20" fill="none" xmlns="http://www.w3.org/2000/svg">
<path d="M19.0833 13.0557V17.0742C19.0833 17.6071 18.8716 18.1181 18.4948 18.4949C18.118 18.8718 17.607 19.0834 17.0741 19.0834H3.00926C2.47637 19.0834 1.96531 18.8718 1.5885 18.4949C1.21169 18.1181 1 17.6071 1 17.0742V13.0557" stroke="#212529" stroke-width="1.5" stroke-linecap="round" stroke-linejoin="round"/>
<path d="M15.0648 8.03252L10.0416 13.0557L5.01849 8.03252" stroke="#212529" stroke-width="1.5" stroke-linecap="round" stroke-linejoin="round"/>
<path d="M15.0648 8.03252L10.0416 13.0557L5.01849 8.03252" stroke="#212529" stroke-width="1.5" stroke-linecap="round" stroke-linejoin="round"/>
<path d="M10.0416 13.0557V1.00011" stroke="#212529" stroke-width="1.5" stroke-linecap="round" stroke-linejoin="round"/>
<path d="M19.0833 13.0557V17.0742C19.0833 17.6071 18.8716 18.1181 18.4948 18.4949C18.118 18.8718 17.607 19.0834 17.0741 19.0834H3.00926C2.47637 19.0834 1.96531 18.8718 1.5885 18.4949C1.21169 18.1181 1 17.6071 1 17.0742V13.0557" stroke="#212529" stroke-width="1.5" stroke-linecap="round" stroke-linejoin="round"/>
</svg>
