<svg width="21" height="21" viewBox="0 0 21 21" fill="none" xmlns="http://www.w3.org/2000/svg">
<path d="M2.67563 14.469C4.11919 14.6011 5.61326 14.9698 7.101 15.5749V17.1312L1 16.0459V3.1416L2.67563 3.43938V14.469ZM10.477 17.4043V17.7315L9.25081 17.5134V16.62C9.66205 16.8533 10.0701 17.1053 10.4746 17.3756V17.4075C10.4754 17.4063 10.4762 17.4055 10.477 17.4043Z" stroke="#101828" stroke-miterlimit="10" stroke-linecap="round" stroke-linejoin="round"/>
<path d="M10.5224 5.16774V17.4079L10.4994 17.4039L10.4862 17.4016L10.4794 17.4004L10.4765 17.3999L10.4742 17.3993V5.22516C10.4748 5.22401 10.4759 5.22286 10.4765 5.22171V5.15968L10.4799 5.16025L10.4863 5.16141L10.4995 5.16371L10.515 5.16659L10.5224 5.16774ZM3.86909 13.1839C4.81501 13.1636 5.95518 13.4865 7.10054 14.1525V15.5753C5.6128 14.9702 4.11869 14.6015 2.67517 14.4694V2.22949C3.06971 2.2653 3.46821 2.31946 3.86909 2.39112V13.1839ZM10.4741 17.335V17.376C10.0696 17.1056 9.66156 16.8536 9.25032 16.6203V15.8452C9.68067 16.2867 10.0927 16.7835 10.4741 17.335Z" stroke="#101828" stroke-miterlimit="10" stroke-linecap="round" stroke-linejoin="round"/>
<path d="M10.5231 5.16805V17.4082C10.5197 17.4059 10.5168 17.4037 10.5134 17.4019C10.5088 17.3985 10.5048 17.3956 10.5002 17.3927C10.4967 17.3904 10.4933 17.3881 10.4898 17.3864C10.4858 17.3829 10.4812 17.38 10.4772 17.3778C10.4766 17.3772 10.4755 17.3766 10.4749 17.376V5.22548C10.4755 5.22432 10.4766 5.22317 10.4772 5.22202V5.15596C10.4697 5.14445 10.4623 5.13301 10.4537 5.12207C10.4617 5.12664 10.4691 5.13182 10.4772 5.13754C10.4846 5.14211 10.4927 5.14729 10.5002 5.15247C10.5047 5.15535 10.5088 5.15819 10.5134 5.16168C10.5145 5.16226 10.5162 5.16341 10.5174 5.16398C10.5192 5.16579 10.5215 5.16694 10.5231 5.16805Z" stroke="#101828" stroke-miterlimit="10" stroke-linecap="round" stroke-linejoin="round"/>
<path d="M10.4771 5.15552V5.22161C10.4763 5.2228 10.4755 5.22399 10.4747 5.22518V17.3349C10.0933 16.7835 9.68128 16.2867 9.25092 15.8451C8.56497 15.1413 7.83204 14.5768 7.10115 14.1524C5.95579 13.4864 4.81561 13.1635 3.86969 13.1838V1.00086C5.71013 0.962248 8.2867 2.22188 10.2068 4.77932C10.2904 4.89079 10.3732 5.00505 10.4536 5.1217C10.4619 5.13283 10.4695 5.144 10.4771 5.15552Z" stroke="#101828" stroke-miterlimit="10" stroke-linecap="round" stroke-linejoin="round"/>
<path d="M10.5254 5.22479V17.4075C10.5248 17.4064 10.5237 17.4052 10.5231 17.4041C10.522 17.4029 10.5214 17.4012 10.5202 17.4C10.5168 17.3955 10.5139 17.3903 10.5105 17.3857C10.507 17.3805 10.5036 17.3759 10.5001 17.3713C10.4926 17.3598 10.4852 17.3489 10.4772 17.338C10.4772 17.3369 10.476 17.3357 10.4749 17.3345V5.22479C10.4754 5.22363 10.4766 5.22248 10.4772 5.22133V5.15527C10.4789 5.157 10.48 5.15815 10.4806 5.15984C10.4818 5.16099 10.4823 5.16214 10.4829 5.1633C10.4841 5.16445 10.4846 5.16502 10.4846 5.16617C10.4904 5.17366 10.4955 5.18111 10.5001 5.18859C10.5082 5.19949 10.5156 5.21039 10.5231 5.22133C10.5236 5.22248 10.5248 5.22363 10.5254 5.22479Z" stroke="#101828" stroke-miterlimit="10" stroke-linecap="round" stroke-linejoin="round"/>
<path d="M19.9995 3.1416V16.0462L10.5226 17.7316V17.4043C10.5232 17.4054 10.5243 17.4066 10.5249 17.4077V17.3756C13.0734 15.6718 15.7776 14.7024 18.3238 14.4693V3.43961L19.9995 3.1416Z" stroke="#101828" stroke-miterlimit="10" stroke-linecap="round" stroke-linejoin="round"/>
<path d="M10.5248 5.22466V17.3988L10.5225 17.3994L10.5197 17.3999L10.5128 17.4011L10.4996 17.4034L10.4766 17.4074V5.16724L10.4841 5.16609L10.4995 5.16321L10.5127 5.16091L10.5191 5.15976L10.5225 5.15918V5.22121C10.5231 5.22236 10.5242 5.22351 10.5248 5.22466Z" stroke="#101828" stroke-miterlimit="10" stroke-linecap="round" stroke-linejoin="round"/>
<path d="M18.325 2.22949V14.4697C15.7788 14.7028 13.0747 15.6722 10.5261 17.376V17.3352C12.4682 14.5265 15.2034 13.1432 17.1312 13.1839V2.39143C17.532 2.31965 17.9305 2.26565 18.325 2.22949Z" stroke="#101828" stroke-miterlimit="10" stroke-linecap="round" stroke-linejoin="round"/>
<path d="M10.5226 5.22198C10.5231 5.22313 10.5243 5.22429 10.5249 5.22544V17.376C10.5243 17.3766 10.5231 17.3772 10.5226 17.3777C10.5185 17.38 10.514 17.3829 10.5099 17.3863C10.5065 17.3881 10.5031 17.3904 10.4996 17.3927C10.495 17.3955 10.491 17.3984 10.4864 17.4019C10.4829 17.4036 10.48 17.4059 10.4766 17.4082V5.16802C10.4784 5.16686 10.4807 5.16571 10.4823 5.16398C10.4835 5.16341 10.4852 5.16226 10.4864 5.16168C10.4909 5.15823 10.495 5.15535 10.4996 5.15247C10.5071 5.14729 10.515 5.14211 10.5225 5.13754C10.5306 5.13182 10.538 5.12664 10.5461 5.12207C10.5375 5.13297 10.53 5.14445 10.5225 5.15596V5.22198H10.5226Z" stroke="#101828" stroke-miterlimit="10" stroke-linecap="round" stroke-linejoin="round"/>
<path d="M17.1308 1.00085V13.1836C15.203 13.1428 12.4679 14.5262 10.5258 17.3349V5.22506C10.5252 5.22391 10.524 5.22276 10.5235 5.22161V5.15555C10.5309 5.14403 10.5384 5.13259 10.547 5.12166C10.628 5.00509 10.7101 4.89078 10.7945 4.77939C12.7142 2.22175 15.2904 0.962395 17.1308 1.00085ZM9.2514 15.8451V19.9898L8.17651 18.915L7.10162 19.9898V14.1523C7.83256 14.5767 8.56545 15.1413 9.2514 15.8451Z" stroke="#101828" stroke-miterlimit="10" stroke-linecap="round" stroke-linejoin="round"/>
</svg>
