<svg width="17" height="17" viewBox="0 0 17 17" fill="none" xmlns="http://www.w3.org/2000/svg">
<path d="M16 10.7852V14.0468C16 14.4794 15.8244 14.8942 15.5118 15.2C15.1993 15.5059 14.7754 15.6777 14.3333 15.6777H2.66667C2.22464 15.6777 1.80072 15.5059 1.48816 15.2C1.17559 14.8942 1 14.4794 1 14.0468V10.7852" stroke="white" stroke-width="2" stroke-linecap="round" stroke-linejoin="round"/>
<path d="M12.6672 6.70805L8.50053 10.7852L4.33386 6.70805" stroke="white" stroke-width="2" stroke-linecap="round" stroke-linejoin="round"/>
<path d="M12.6672 6.70805L8.50053 10.7852L4.33386 6.70805" stroke="white" stroke-width="2" stroke-linecap="round" stroke-linejoin="round"/>
<path d="M8.49951 10.7852V1.0001" stroke="white" stroke-width="2" stroke-linecap="round" stroke-linejoin="round"/>
<path d="M16 10.7852V14.0468C16 14.4794 15.8244 14.8942 15.5118 15.2C15.1993 15.5059 14.7754 15.6777 14.3333 15.6777H2.66667C2.22464 15.6777 1.80072 15.5059 1.48816 15.2C1.17559 14.8942 1 14.4794 1 14.0468V10.7852" stroke="white" stroke-width="2" stroke-linecap="round" stroke-linejoin="round"/>
</svg>
