<svg width="60" height="60" viewBox="0 0 60 60" fill="none" xmlns="http://www.w3.org/2000/svg">
<path d="M53.8333 32.0484L53.5707 32.1901C52.1023 32.9819 50.481 33.6867 48.7081 34.3054C46.9353 34.9241 45.0536 35.4429 43.0636 35.8625L53.8333 32.0484ZM53.8333 32.0484V31.75M53.8333 32.0484V31.75M53.8333 31.75V21.75V20.9129M53.8333 31.75V20.9129M53.8333 20.9129L53.0963 21.3098M53.8333 20.9129L53.0963 21.3098M53.0963 21.3098C51.6778 22.0735 50.1046 22.7577 48.3753 23.3613C46.6459 23.9648 44.8055 24.4737 42.8535 24.8874C40.901 25.2991 38.8495 25.6154 36.699 25.8359C34.5504 26.0563 32.3175 26.1667 30 26.1667C27.6825 26.1667 25.4214 26.0563 23.2164 25.8358C21.0104 25.6152 18.9307 25.2978 16.9769 24.8842L16.9765 24.8841M53.0963 21.3098L16.9765 24.8841M16.9765 24.8841C15.0249 24.4727 13.1998 23.9651 11.5005 23.3621C9.80114 22.7591 8.27189 22.0759 6.91097 21.3137L6.16667 20.8969M16.9765 24.8841L6.16667 20.8969M6.16667 20.8969V21.75M6.16667 20.8969V21.75M6.16667 21.75V31.75V32.0431M6.16667 21.75V32.0431M6.16667 32.0431L6.42237 32.1863M6.16667 32.0431L6.42237 32.1863M6.42237 32.1863C7.83922 32.9797 9.42108 33.6853 11.1661 34.3045C12.9112 34.9237 14.7804 35.4439 16.7731 35.8658L16.7735 35.8659M6.42237 32.1863L16.7735 35.8659M16.7735 35.8659C18.764 36.2856 20.8787 36.607 23.1169 36.8309C25.3564 37.0548 27.6508 37.1667 30 37.1667C32.3492 37.1667 34.6162 37.0548 36.801 36.8307M16.7735 35.8659L36.801 36.8307M36.801 36.8307C38.9839 36.6068 41.0714 36.2842 43.0634 35.8625L36.801 36.8307ZM0.500001 46.667V46.6667V13.3333C0.500001 9.98398 3.17114 6.96822 8.99677 4.37341C14.7793 1.7978 21.7751 0.5 30 0.5C38.2272 0.5 45.2241 1.79781 51.0066 4.37341C56.8322 6.96823 59.502 9.98389 59.5 13.333V13.3333V46.6667C59.5 50.0756 56.8502 53.1046 51.0867 55.6699C45.361 58.2183 38.338 59.5022 30.0001 59.5H30C21.6598 59.5 14.6357 58.2149 8.90998 55.6665C3.14628 53.1012 0.497966 50.0734 0.500001 46.667ZM29.9998 20.5833H30C34.9929 20.5833 40.011 19.8674 45.0531 18.4377C47.5691 17.7243 49.5597 16.9797 51.0082 16.1984C52.4371 15.4276 53.4288 14.5736 53.8008 13.5942L53.8681 13.4168L53.8008 13.2393C53.4296 12.2605 52.4433 11.4022 51.0208 10.6239C49.5793 9.83512 47.5989 9.08007 45.0961 8.35318C40.0791 6.89605 35.0467 6.16667 30 6.16667C24.897 6.16667 19.891 6.88231 14.9834 8.31332C12.535 9.02724 10.5766 9.77864 9.12278 10.5729C7.68224 11.3599 6.66928 12.2252 6.21356 13.2019L6.11491 13.4134L6.21358 13.6248C6.67068 14.6043 7.68504 15.4677 9.12683 16.2488C10.5817 17.037 12.5408 17.778 14.9893 18.4774C19.8961 19.8791 24.9 20.5811 29.9998 20.5833ZM53.8075 46.7418L53.8333 46.6647V46.5833V38.4167V37.5796L53.0963 37.9764C51.6778 38.7402 50.1046 39.4244 48.3753 40.0279C46.6457 40.6315 44.8052 41.1404 42.853 41.5542C40.9006 41.9658 38.8493 42.2821 36.699 42.5026C34.5504 42.723 32.3175 42.8333 30 42.8333C27.6825 42.8333 25.4214 42.723 23.2164 42.5025C21.0104 42.2819 18.9307 41.9645 16.9769 41.5508L16.9765 41.5508C15.0249 41.1393 13.1998 40.6318 11.5005 40.0288C9.80114 39.4258 8.27189 38.7425 6.91097 37.9804L6.16667 37.5636V38.4167V46.6667V46.7478L6.19233 46.8248C6.53452 47.8514 7.56308 48.7353 9.05991 49.5255C10.5726 50.324 12.4536 51.0443 14.6948 51.6904L14.6954 51.6906C16.9424 52.3355 19.4092 52.8532 22.0945 53.2448C24.7838 53.637 27.419 53.8333 30 53.8333C32.581 53.8333 35.202 53.6369 37.8629 53.2447C40.5194 52.853 42.9725 52.3342 45.2213 51.6873C47.4665 51.0429 49.3632 50.3087 50.9035 49.4804C52.4233 48.663 53.4653 47.7657 53.8075 46.7418Z" fill="#212529" stroke="white"/>
</svg>
