<svg width="80" height="80" viewBox="0 0 80 80" fill="none" xmlns="http://www.w3.org/2000/svg">
<g clip-path="url(#clip0_2813_3339)">
<path d="M29.7844 72.5C28.9633 72.5022 28.15 72.3415 27.3915 72.0272C26.633 71.7128 25.9444 71.2511 25.3656 70.6688L14.3313 59.6344C13.7489 59.0556 13.2872 58.367 12.9728 57.6085C12.6585 56.85 12.4978 56.0367 12.5 55.2156V52V51.25H11.75H8.25H7.5V52V56.25C7.5 57.2446 7.10491 58.1984 6.40165 58.9016C5.69839 59.6049 4.74456 60 3.75 60C2.75544 60 1.80161 59.6049 1.09835 58.9016C0.395088 58.1984 0 57.2446 0 56.25V38.75C0 37.7554 0.395088 36.8016 1.09835 36.0983C1.80161 35.3951 2.75544 35 3.75 35C4.74456 35 5.69839 35.3951 6.40165 36.0983C7.10491 36.8016 7.5 37.7554 7.5 38.75V43V43.75H8.25H11.75H12.5V43V28.75C12.5 27.0924 13.1585 25.5027 14.3306 24.3306C15.5027 23.1585 17.0924 22.5 18.75 22.5H30.5H31.25V21.75V18.25V17.5H30.5H26.25C25.2554 17.5 24.3016 17.1049 23.5983 16.4017C22.8951 15.6984 22.5 14.7446 22.5 13.75C22.5 12.7554 22.8951 11.8016 23.5983 11.0983C24.3016 10.3951 25.2554 10 26.25 10H43.75C44.7446 10 45.6984 10.3951 46.4016 11.0983C47.1049 11.8016 47.5 12.7554 47.5 13.75C47.5 14.7446 47.1049 15.6984 46.4016 16.4017C45.6984 17.1049 44.7446 17.5 43.75 17.5H39.5H38.75V18.25V21.75V22.5H39.5L29.7844 72.5ZM29.7844 72.5H42.7156H29.7844ZM72.5 44.5H73.25V43.75V38.75C73.25 37.9543 73.5661 37.1913 74.1287 36.6287C74.6913 36.0661 75.4544 35.75 76.25 35.75C77.0456 35.75 77.8087 36.0661 78.3713 36.6287C78.9339 37.1913 79.25 37.9543 79.25 38.75V56.25C79.25 57.0456 78.9339 57.8087 78.3713 58.3713C77.8087 58.9339 77.0456 59.25 76.25 59.25C75.4544 59.25 74.6913 58.9339 74.1287 58.3713C73.5661 57.8087 73.25 57.0456 73.25 56.25V51.25V50.5H72.5H67.5H66.75V51.25V53.75C66.75 54.4723 66.6077 55.1875 66.3313 55.8548C66.0549 56.5221 65.6498 57.1284 65.1391 57.6391C64.6284 58.1498 64.022 58.5549 63.3548 58.8313C62.6875 59.1077 61.9723 59.25 61.25 59.25H57.8125H57.502L57.2824 59.4694L46.6043 70.1382L46.6024 70.14C46.0936 70.652 45.4882 71.058 44.8214 71.3343C44.1545 71.6107 43.4395 71.752 42.7177 71.75H42.7156L29.7844 71.75L29.7823 71.75C29.0605 71.752 28.3455 71.6107 27.6786 71.3343C27.0118 71.058 26.4064 70.652 25.8976 70.14L25.896 70.1384L14.8616 59.104L14.86 59.1024C14.348 58.5936 13.942 57.9882 13.6657 57.3214C13.3893 56.6545 13.248 55.9395 13.25 55.2177V55.2156V51.25V50.5H12.5H7.5H6.75V51.25V56.25C6.75 57.0456 6.43393 57.8087 5.87132 58.3713C5.30871 58.9339 4.54565 59.25 3.75 59.25C2.95435 59.25 2.19129 58.9339 1.62868 58.3713C1.06607 57.8087 0.75 57.0456 0.75 56.25V38.75C0.75 37.9543 1.06607 37.1913 1.62868 36.6287C2.19129 36.0661 2.95435 35.75 3.75 35.75C4.54565 35.75 5.30871 36.0661 5.87132 36.6287C6.43393 37.1913 6.75 37.9543 6.75 38.75V43.75V44.5H7.5H12.5H13.25V43.75V28.75C13.25 27.2913 13.8295 25.8924 14.8609 24.8609C15.8924 23.8295 17.2913 23.25 18.75 23.25H31.25H32V22.5V17.5V16.75H31.25H26.25C25.4543 16.75 24.6913 16.4339 24.1287 15.8713C23.5661 15.3087 23.25 14.5456 23.25 13.75C23.25 12.9544 23.5661 12.1913 24.1287 11.6287C24.6913 11.0661 25.4543 10.75 26.25 10.75H43.75C44.5456 10.75 45.3087 11.0661 45.8713 11.6287C46.4339 12.1913 46.75 12.9544 46.75 13.75C46.75 14.5456 46.4339 15.3087 45.8713 15.8713C45.3087 16.4339 44.5456 16.75 43.75 16.75H38.75H38V17.5V22.5V23.25H38.75L42.7156 23.25L42.7177 23.25C43.4395 23.248 44.1545 23.3893 44.8214 23.6657C45.4882 23.942 46.0936 24.348 46.6024 24.86L46.6043 24.8618L57.2824 35.5306L57.502 35.75H57.8125H61.25C62.7087 35.75 64.1076 36.3295 65.1391 37.3609C66.1705 38.3924 66.75 39.7913 66.75 41.25V43.75V44.5H67.5H72.5ZM60 53.25H60.75V52.5V42.5V41.75H60L57.2844 41.75L57.2812 41.75C56.558 41.7531 55.8414 41.6123 55.1731 41.3359C54.5047 41.0595 53.898 40.653 53.3882 40.1401L53.3866 40.1384L42.7178 29.4697L42.4982 29.25H42.1875H20H19.25V30V54.6875V54.9982L19.4697 55.2178L29.7822 65.5303L30.0018 65.75H30.3125H42.1875H42.498L42.7176 65.5306L53.3957 54.8618L53.3976 54.86C53.9064 54.348 54.5118 53.942 55.1786 53.6657C55.8455 53.3893 56.5605 53.248 57.2823 53.25H57.2844H60Z" fill="black" stroke="white" stroke-width="1.5"/>
</g>
<defs>
<clipPath id="clip0_2813_3339">
<rect width="80" height="80" fill="white"/>
</clipPath>
</defs>
</svg>
