<svg width="60" height="52" viewBox="0 0 60 52" fill="none" xmlns="http://www.w3.org/2000/svg">
<path d="M55.7143 0H4.28571C3.14942 0.00113459 2.05999 0.453029 1.25651 1.25651C0.453028 2.05999 0.00113459 3.14942 0 4.28571V47.1429C0.00113459 48.2791 0.453028 49.3686 1.25651 50.1721C2.05999 50.9755 3.14942 51.4274 4.28571 51.4286H55.7143C56.8506 51.4274 57.94 50.9755 58.7435 50.1721C59.547 49.3686 59.9989 48.2791 60 47.1429V4.28571C59.9989 3.14942 59.547 2.05999 58.7435 1.25651C57.94 0.453029 56.8506 0.00113459 55.7143 0ZM55.7143 4.28571V12.8571H4.28571V4.28571H55.7143ZM4.28571 17.1429H17.1429V47.1429H4.28571V17.1429ZM21.4286 47.1429V17.1429H55.7143V47.1429H21.4286Z" fill="black"/>
</svg>
