<svg width="60" height="60" viewBox="0 0 60 60" fill="none" xmlns="http://www.w3.org/2000/svg">
<path d="M38.5714 12.8571C38.5714 16.2671 37.2168 19.5373 34.8057 21.9485C32.3945 24.3597 29.1242 25.7143 25.7143 25.7143C22.3044 25.7143 19.0341 24.3597 16.6229 21.9485C14.2117 19.5373 12.8571 16.2671 12.8571 12.8571C12.8571 9.44722 14.2117 6.17695 16.6229 3.76577C19.0341 1.35459 22.3044 0 25.7143 0C29.1242 0 32.3945 1.35459 34.8057 3.76577C37.2168 6.17695 38.5714 9.44722 38.5714 12.8571ZM25.7143 21.4286C27.9876 21.4286 30.1677 20.5255 31.7752 18.9181C33.3827 17.3106 34.2857 15.1304 34.2857 12.8571C34.2857 10.5839 33.3827 8.40368 31.7752 6.79623C30.1677 5.18877 27.9876 4.28571 25.7143 4.28571C23.441 4.28571 21.2608 5.18877 19.6534 6.79623C18.0459 8.40368 17.1429 10.5839 17.1429 12.8571C17.1429 15.1304 18.0459 17.3106 19.6534 18.9181C21.2608 20.5255 23.441 21.4286 25.7143 21.4286ZM26.8114 51.4286C26.3198 50.0368 25.9904 48.593 25.83 47.1257H4.28571C4.29 46.0714 4.94571 42.9 7.85143 39.9943C10.6457 37.2 15.9043 34.2857 25.7143 34.2857C26.8286 34.2857 27.8871 34.3243 28.8857 34.3929C29.8543 32.9314 31.0114 31.6071 32.3314 30.4586C30.33 30.1629 28.1314 30 25.7143 30C4.28571 30 0 42.8571 0 47.1429C0 51.4286 4.28571 51.4286 4.28571 51.4286H26.8114ZM42.3686 31.9714C43.14 29.3443 46.86 29.3443 47.6357 31.9714L47.82 32.6057C47.9351 32.9992 48.1369 33.3618 48.4107 33.667C48.6844 33.9722 49.023 34.2121 49.4017 34.3691C49.7803 34.5262 50.1894 34.5964 50.5987 34.5745C51.0081 34.5527 51.4074 34.4393 51.7671 34.2429L52.35 33.9257C54.7543 32.6143 57.3857 35.2457 56.0786 37.65L55.7571 38.2329C55.5615 38.5925 55.4488 38.9913 55.4273 39.4002C55.4059 39.809 55.4763 40.2175 55.6333 40.5956C55.7903 40.9737 56.0299 41.3119 56.3346 41.5853C56.6394 41.8587 57.0014 42.0605 57.3943 42.1757L58.0329 42.3686C60.6557 43.14 60.6557 46.86 58.0329 47.6357L57.39 47.82C56.9973 47.9361 56.6356 48.1386 56.3314 48.4128C56.0272 48.6869 55.7882 49.0257 55.632 49.4042C55.4758 49.7827 55.4064 50.1915 55.4288 50.6003C55.4512 51.0092 55.5648 51.4079 55.7614 51.7671L56.0786 52.35C57.3857 54.7543 54.7543 57.3857 52.35 56.0786L51.7671 55.7571C51.4075 55.5615 51.0087 55.4488 50.5998 55.4273C50.191 55.4059 49.7825 55.4763 49.4044 55.6333C49.0263 55.7903 48.6881 56.0299 48.4147 56.3346C48.1413 56.6394 47.9395 57.0014 47.8243 57.3943L47.6314 58.0329C46.86 60.6557 43.14 60.6557 42.3643 58.0329L42.18 57.39C42.0639 56.9973 41.8614 56.6356 41.5872 56.3314C41.3131 56.0272 40.9743 55.7882 40.5958 55.632C40.2173 55.4758 39.8085 55.4064 39.3996 55.4288C38.9908 55.4512 38.5921 55.5648 38.2329 55.7614L37.65 56.0786C35.2457 57.3857 32.6143 54.7543 33.9214 52.35L34.2429 51.7671C34.4385 51.4075 34.5512 51.0087 34.5727 50.5998C34.5941 50.191 34.5237 49.7825 34.3667 49.4044C34.2097 49.0263 33.9701 48.6881 33.6654 48.4147C33.3606 48.1413 32.9986 47.9395 32.6057 47.8243L31.9714 47.6314C29.3443 46.86 29.3443 43.14 31.9714 42.3643L32.6057 42.18C32.9992 42.0649 33.3618 41.8631 33.667 41.5893C33.9722 41.3156 34.2121 40.977 34.3691 40.5983C34.5262 40.2197 34.5964 39.8106 34.5745 39.4013C34.5527 38.9919 34.4393 38.5926 34.2429 38.2329L33.9257 37.65C32.6143 35.2457 35.2457 32.6143 37.65 33.9214L38.2329 34.2429C38.5925 34.4385 38.9913 34.5512 39.4002 34.5727C39.809 34.5941 40.2175 34.5237 40.5956 34.3667C40.9737 34.2097 41.3119 33.9701 41.5853 33.6654C41.8587 33.3606 42.0605 32.9986 42.1757 32.6057L42.3686 31.9714ZM51.4286 45C51.4286 44.1558 51.2623 43.3198 50.9392 42.5399C50.6162 41.7599 50.1426 41.0513 49.5457 40.4543C48.9487 39.8574 48.2401 39.3838 47.4601 39.0608C46.6802 38.7377 45.8442 38.5714 45 38.5714C44.1558 38.5714 43.3198 38.7377 42.5399 39.0608C41.7599 39.3838 41.0513 39.8574 40.4543 40.4543C39.8574 41.0513 39.3838 41.7599 39.0608 42.5399C38.7377 43.3198 38.5714 44.1558 38.5714 45C38.5714 46.705 39.2487 48.3401 40.4543 49.5457C41.6599 50.7513 43.295 51.4286 45 51.4286C46.705 51.4286 48.3401 50.7513 49.5457 49.5457C50.7513 48.3401 51.4286 46.705 51.4286 45Z" fill="#212529"/>
</svg>
