<svg width="50" height="56" viewBox="0 0 50 56" fill="none" xmlns="http://www.w3.org/2000/svg">
<path d="M31.0668 52.6454C36.7352 44.4908 37.8712 37.1266 37.989 33.4597C41.414 34.5198 44.2443 35.9475 46.2411 37.623C48.3575 39.3989 49.5 41.4173 49.5 43.5556V55.5H0.5V43.5556C0.5 41.4183 1.64933 39.3998 3.77028 37.6233C5.77048 35.9479 8.60026 34.5205 12.011 33.4605C12.1289 37.1276 13.2652 44.4914 18.9332 52.6454L19.6331 53.6523L19.8368 52.4431L22.3681 37.4164L22.3952 37.2551L22.3218 37.1089L19.708 31.9044C21.4148 31.7294 23.1852 31.6111 25 31.6111C26.8148 31.6111 28.5852 31.7294 30.292 31.9044L27.6782 37.1089L27.6048 37.2551L27.6319 37.4164L30.1632 52.4431L30.3669 53.6523L31.0668 52.6454ZM25 0.5C31.6322 0.5 37 5.84713 37 12.4444C37 19.0418 31.6322 24.3889 25 24.3889C18.3678 24.3889 13 19.0418 13 12.4444C13 5.84713 18.3678 0.5 25 0.5Z" fill="#212529" stroke="white"/>
</svg>
