<svg width="60" height="60" viewBox="0 0 60 60" fill="none" xmlns="http://www.w3.org/2000/svg">
<mask id="path-1-inside-1_2815_3221" fill="white">
<path d="M6 0C4.4087 0 2.88258 0.632141 1.75736 1.75736C0.632141 2.88258 0 4.4087 0 6V30H6V18H12V30H18V6C18 4.4087 17.3679 2.88258 16.2426 1.75736C15.1174 0.632141 13.5913 0 12 0H6ZM6 6H12V12H6M60 40.5V36C60 34.4087 59.3679 32.8826 58.2426 31.7574C57.1174 30.6321 55.5913 30 54 30H42V60H54C55.5913 60 57.1174 59.3679 58.2426 58.2426C59.3679 57.1174 60 55.5913 60 54V49.5C59.9696 48.3161 59.4858 47.1891 58.6484 46.3516C57.8109 45.5142 56.6839 45.0304 55.5 45C56.6839 44.9696 57.8109 44.4858 58.6484 43.6484C59.4858 42.8109 59.9696 41.6839 60 40.5ZM54 54H48V48H54V54ZM54 42H48V36H54M11.37 58.83L6.63 55.17L48.63 1.17L53.37 4.83L11.37 58.83Z"/>
</mask>
<path d="M6 0C4.4087 0 2.88258 0.632141 1.75736 1.75736C0.632141 2.88258 0 4.4087 0 6V30H6V18H12V30H18V6C18 4.4087 17.3679 2.88258 16.2426 1.75736C15.1174 0.632141 13.5913 0 12 0H6ZM6 6H12V12H6M60 40.5V36C60 34.4087 59.3679 32.8826 58.2426 31.7574C57.1174 30.6321 55.5913 30 54 30H42V60H54C55.5913 60 57.1174 59.3679 58.2426 58.2426C59.3679 57.1174 60 55.5913 60 54V49.5C59.9696 48.3161 59.4858 47.1891 58.6484 46.3516C57.8109 45.5142 56.6839 45.0304 55.5 45C56.6839 44.9696 57.8109 44.4858 58.6484 43.6484C59.4858 42.8109 59.9696 41.6839 60 40.5ZM54 54H48V48H54V54ZM54 42H48V36H54M11.37 58.83L6.63 55.17L48.63 1.17L53.37 4.83L11.37 58.83Z" fill="#212529"/>
<path d="M6 0V-0.75V0ZM0 6H-0.75H0ZM0 30H-0.75V30.75H0V30ZM6 30V30.75H6.75V30H6ZM6 18V17.25H5.25V18H6ZM12 18H12.75V17.25H12V18ZM12 30H11.25V30.75H12V30ZM18 30V30.75H18.75V30H18ZM18 6H18.75H18ZM12 0V-0.75V0ZM12 6H12.75V5.25H12V6ZM12 12V12.75H12.75V12H12ZM60 40.5L60.7498 40.5192L60.75 40.5096V40.5H60ZM42 30V29.25H41.25V30H42ZM42 60H41.25V60.75H42V60ZM60 49.5H60.75V49.4904L60.7498 49.4808L60 49.5ZM55.5 45L55.4808 44.2502V45.7498L55.5 45ZM54 54V54.75H54.75V54H54ZM48 54H47.25V54.75H48V54ZM48 48V47.25H47.25V48H48ZM54 48H54.75V47.25H54V48ZM48 42H47.25V42.75H48V42ZM48 36V35.25H47.25V36H48ZM11.37 58.83L10.9116 59.4236L11.5032 59.8804L11.962 59.2905L11.37 58.83ZM6.63 55.17L6.03799 54.7095L5.57591 55.3036L6.17163 55.7636L6.63 55.17ZM48.63 1.17L49.0884 0.576371L48.4968 0.119608L48.038 0.709545L48.63 1.17ZM53.37 4.83L53.962 5.29046L54.4241 4.69636L53.8284 4.23637L53.37 4.83ZM6 -0.75C4.20979 -0.75 2.4929 -0.0388417 1.22703 1.22703L2.28769 2.28769C3.27225 1.30312 4.60761 0.75 6 0.75V-0.75ZM1.22703 1.22703C-0.0388417 2.4929 -0.75 4.20979 -0.75 6H0.75C0.75 4.60761 1.30312 3.27225 2.28769 2.28769L1.22703 1.22703ZM-0.75 6V30H0.75V6H-0.75ZM0 30.75H6V29.25H0V30.75ZM6.75 30V18H5.25V30H6.75ZM6 18.75H12V17.25H6V18.75ZM11.25 18V30H12.75V18H11.25ZM12 30.75H18V29.25H12V30.75ZM18.75 30V6H17.25V30H18.75ZM18.75 6C18.75 4.20979 18.0388 2.4929 16.773 1.22703L15.7123 2.28769C16.6969 3.27225 17.25 4.60761 17.25 6H18.75ZM16.773 1.22703C15.5071 -0.0388417 13.7902 -0.75 12 -0.75V0.75C13.3924 0.75 14.7277 1.30312 15.7123 2.28769L16.773 1.22703ZM12 -0.75H6V0.75H12V-0.75ZM6 6.75H12V5.25H6V6.75ZM11.25 6V12H12.75V6H11.25ZM12 11.25H6V12.75H12V11.25ZM60.75 40.5V36H59.25V40.5H60.75ZM60.75 36C60.75 34.2098 60.0388 32.4929 58.773 31.227L57.7123 32.2877C58.6969 33.2723 59.25 34.6076 59.25 36H60.75ZM58.773 31.227C57.5071 29.9612 55.7902 29.25 54 29.25V30.75C55.3924 30.75 56.7277 31.3031 57.7123 32.2877L58.773 31.227ZM54 29.25H42V30.75H54V29.25ZM41.25 30V60H42.75V30H41.25ZM42 60.75H54V59.25H42V60.75ZM54 60.75C55.7902 60.75 57.5071 60.0388 58.773 58.773L57.7123 57.7123C56.7277 58.6969 55.3924 59.25 54 59.25V60.75ZM58.773 58.773C60.0388 57.5071 60.75 55.7902 60.75 54H59.25C59.25 55.3924 58.6969 56.7277 57.7123 57.7123L58.773 58.773ZM60.75 54V49.5H59.25V54H60.75ZM60.7498 49.4808C60.7145 48.1047 60.1521 46.7947 59.1787 45.8213L58.118 46.882C58.8195 47.5835 59.2248 48.5275 59.2502 49.5192L60.7498 49.4808ZM59.1787 45.8213C58.2053 44.8479 56.8953 44.2855 55.5192 44.2502L55.4808 45.7498C56.4725 45.7752 57.4165 46.1805 58.118 46.882L59.1787 45.8213ZM55.5192 45.7498C56.8953 45.7145 58.2053 45.1521 59.1787 44.1787L58.118 43.118C57.4165 43.8195 56.4725 44.2248 55.4808 44.2502L55.5192 45.7498ZM59.1787 44.1787C60.1521 43.2053 60.7145 41.8953 60.7498 40.5192L59.2502 40.4808C59.2248 41.4725 58.8195 42.4165 58.118 43.118L59.1787 44.1787ZM54 53.25H48V54.75H54V53.25ZM48.75 54V48H47.25V54H48.75ZM48 48.75H54V47.25H48V48.75ZM53.25 48V54H54.75V48H53.25ZM54 41.25H48V42.75H54V41.25ZM48.75 42V36H47.25V42H48.75ZM48 36.75H54V35.25H48V36.75ZM11.8284 58.2364L7.08837 54.5764L6.17163 55.7636L10.9116 59.4236L11.8284 58.2364ZM7.22201 55.6305L49.222 1.63046L48.038 0.709545L6.03799 54.7095L7.22201 55.6305ZM48.1716 1.76363L52.9116 5.42363L53.8284 4.23637L49.0884 0.576371L48.1716 1.76363ZM52.778 4.36954L10.778 58.3695L11.962 59.2905L53.962 5.29046L52.778 4.36954Z" fill="white" mask="url(#path-1-inside-1_2815_3221)"/>
</svg>
