<svg width="46" height="58" viewBox="0 0 46 58" fill="none" xmlns="http://www.w3.org/2000/svg">
<path d="M5.75 5.5H5.5V5.75V51.75V52H5.75H40.25H40.5V51.75V20.125V19.875H40.25H26.125V5.75V5.5H25.875H5.75ZM1.86091 1.86091C2.89236 0.829462 4.29131 0.25 5.75 0.25H28.6464L45.75 17.3536V51.75C45.75 53.2087 45.1705 54.6076 44.1391 55.6391C43.1076 56.6705 41.7087 57.25 40.25 57.25H5.75C4.29131 57.25 2.89236 56.6705 1.86091 55.6391C0.829462 54.6076 0.25 53.2087 0.25 51.75V5.75C0.25 4.29131 0.829462 2.89236 1.86091 1.86091ZM34.25 34.25H11.75V29H34.25V34.25ZM25.625 45.75H11.75V40.5H25.625V45.75Z" fill="#212529" stroke="white" stroke-width="0.5"/>
</svg>
