<svg width="74" height="70" viewBox="0 0 74 70" fill="none" xmlns="http://www.w3.org/2000/svg">
<path d="M66.6 15.4868C68.5505 15.4868 70.0885 16.1465 71.3078 17.4245C72.6007 18.8147 73.25 20.2947 73.25 22.1053V62.6316C73.25 64.4421 72.6007 65.9221 71.3078 67.3123C70.0886 68.5903 68.5505 69.25 66.6 69.25H7.4C5.44932 69.25 3.9112 68.5902 2.69191 67.312C1.39918 65.9219 0.75 64.442 0.75 62.6316V22.1053C0.75 20.2948 1.39921 18.8148 2.69198 17.4247C3.91126 16.1466 5.44936 15.4868 7.4 15.4868H22.2H22.95V14.7368V7.36842C22.95 5.42628 23.6136 3.89158 24.8681 2.67531L24.8752 2.66835L24.8822 2.6612C26.1038 1.41195 27.6466 0.75 29.6 0.75H44.4C46.3534 0.75 47.8962 1.41195 49.1178 2.6612L49.1248 2.66835L49.1319 2.67531C50.3864 3.89158 51.05 5.42628 51.05 7.36842V14.7368V15.4868H51.8H66.6ZM7.4 21.3553H6.65V22.1053V62.6316V63.3816H7.4H66.6H67.35V62.6316V22.1053V21.3553H66.6H7.4ZM44.4 15.4868H45.15V14.7368V7.36842V6.61842H44.4H29.6H28.85V7.36842V14.7368V15.4868H29.6H44.4ZM37 26.5395C39.01 26.5395 40.9371 27.3346 42.3575 28.7489C43.7777 30.163 44.575 32.0804 44.575 34.0789C44.575 38.2648 41.179 41.6184 37 41.6184C34.99 41.6184 33.0629 40.8233 31.6425 39.409C30.2223 37.9949 29.425 36.0775 29.425 34.0789C29.425 29.8931 32.821 26.5395 37 26.5395ZM21.1 58.1974V54.821C21.1 52.9545 22.6168 51.0763 25.5405 49.6207C28.4214 48.1864 32.4643 47.2816 37 47.2816C41.5357 47.2816 45.5786 48.1864 48.4595 49.6207C51.3832 51.0763 52.9 52.9545 52.9 54.821V58.1974H21.1Z" fill="black" stroke="white" stroke-width="1.5"/>
</svg>
