<svg width="66" height="66" viewBox="0 0 66 66" fill="none" xmlns="http://www.w3.org/2000/svg">
<path d="M32.9994 37.615C39.3719 37.615 44.5379 32.4491 44.5379 26.0765C44.5379 19.704 39.3719 14.5381 32.9994 14.5381C26.6269 14.5381 21.4609 19.704 21.4609 26.0765C21.4609 32.4491 26.6269 37.615 32.9994 37.615Z" stroke="#212529" stroke-width="4.5" stroke-linecap="round" stroke-linejoin="round"/>
<path d="M13.293 55.6155C15.3525 52.2349 18.2472 49.4408 21.6985 47.502C25.1499 45.5633 29.042 44.5449 33.0007 44.5449C36.9593 44.5449 40.8514 45.5633 44.3028 47.502C47.7542 49.4408 50.6488 52.2349 52.7083 55.6155" stroke="#212529" stroke-width="4.5" stroke-linecap="round" stroke-linejoin="round"/>
<path d="M33 63C49.5685 63 63 49.5685 63 33C63 16.4315 49.5685 3 33 3C16.4315 3 3 16.4315 3 33C3 49.5685 16.4315 63 33 63Z" stroke="#212529" stroke-width="4.5" stroke-linecap="round" stroke-linejoin="round"/>
</svg>
