<svg width="26" height="26" viewBox="0 0 26 26" fill="none" xmlns="http://www.w3.org/2000/svg">
<path d="M14.0827 19.5007V10.834H9.74935V13.0007H11.916V19.5007H8.66602V21.6673H17.3327V19.5007H14.0827ZM12.9993 4.33398C12.678 4.33398 12.3638 4.42929 12.0965 4.60785C11.8293 4.7864 11.621 5.04019 11.498 5.33712C11.3751 5.63405 11.3429 5.96079 11.4056 6.27601C11.4683 6.59123 11.623 6.88077 11.8503 7.10803C12.0776 7.33529 12.3671 7.49006 12.6823 7.55276C12.9975 7.61546 13.3243 7.58328 13.6212 7.46029C13.9181 7.3373 14.1719 7.12902 14.3505 6.86179C14.529 6.59456 14.6243 6.28038 14.6243 5.95898C14.6243 5.52801 14.4531 5.11468 14.1484 4.80994C13.8436 4.50519 13.4303 4.33398 12.9993 4.33398Z" fill="#F8F8F8"/>
<path d="M23.8333 26H2.16667C1.59221 25.9994 1.04144 25.771 0.635236 25.3648C0.229031 24.9586 0.0005736 24.4078 0 23.8333V2.16667C0.0005736 1.59221 0.229031 1.04144 0.635236 0.635236C1.04144 0.229031 1.59221 0.0005736 2.16667 0H23.8333C24.4078 0.0005736 24.9586 0.229031 25.3648 0.635236C25.771 1.04144 25.9994 1.59221 26 2.16667V23.8333C25.9994 24.4078 25.771 24.9586 25.3648 25.3648C24.9586 25.771 24.4078 25.9994 23.8333 26ZM2.16667 2.16667V23.8333H23.8333V2.16667H2.16667Z" fill="#F8F8F8"/>
</svg>
